# xmcd
#
# Track frame offsets:
#  150
#  16913
#  38593
#  57310
#  73942
#  89840
#  116297
#
# Disc length: 1808 seconds
#
# Revision: 0
# Processed by: cddbd v1.5.1PL2 Copyright (c) Steve Scherf et al.
# Submitted via: Collectorz.com_Music_Collector 6.11
#
DISCID=59070e07
DTITLE=Gone Fish'n' - Live At The Bombala Bike Show 2003
DYEAR=2006
DGENRE=Blues
TTITLE0=Walkin' The Dog
TTITLE1=Red Hot Mama
TTITLE2=Sex and Drugs and All Shook Up
TTITLE3=Please Don't Touch
TTITLE4=Boogie Woogie Country Girl
TTITLE5=The Red Rooster
TTITLE6=Surfing The Net
EXTD=
EXTT0=
EXTT1=
EXTT2=
EXTT3=
EXTT4=
EXTT5=
EXTT6=
PLAYORDER=
